<?xml version="1.0" encoding="UTF-8" standalone="no"?><!-- Generator: Gravit.io --><svg xmlns="http://www.w3.org/2000/svg" xmlns:xlink="http://www.w3.org/1999/xlink" style="isolation:isolate" viewBox="-50 313 2271.539 1000" width="2271.539pt" height="1000pt"><defs><clipPath id="_clipPath_1V8WM6Sn7emxApcmlAzQ85NEVAwH5vIx"><rect x="-50" y="313" width="2271.539" height="1000"/></clipPath></defs><g clip-path="url(#_clipPath_1V8WM6Sn7emxApcmlAzQ85NEVAwH5vIx)"><circle vector-effect="non-scaling-stroke" cx="449.9999999999998" cy="813.0000000000002" r="500" fill="rgb(234,94,134)" fill-opacity="0.03"/><path d=" M 742.958 1211.061 L 461.167 1064.013 L 185.631 1224.319 L 232.227 897.56 L 2.093 672.408 L 312.681 617.507 L 445.986 318.05 L 591.345 610.878 L 903.867 650.956 L 683.114 886.834 L 742.958 1211.061 Z " fill="rgb(234,94,134)" fill-opacity="0.03"/><defs><filter id="ex3NgJChijj7CMx7zYyM16l5jzrHeFEV" x="-200%" y="-200%" width="400%" height="400%" filterUnits="objectBoundingBox" color-interpolation-filters="sRGB"><feGaussianBlur xmlns="http://www.w3.org/2000/svg" in="SourceGraphic" stdDeviation="2.146804531419514"/><feOffset xmlns="http://www.w3.org/2000/svg" dx="0" dy="0" result="pf_100_offsetBlur"/><feFlood xmlns="http://www.w3.org/2000/svg" flood-color="#000000" flood-opacity="0.65"/><feComposite xmlns="http://www.w3.org/2000/svg" in2="pf_100_offsetBlur" operator="in" result="pf_100_dropShadow"/><feBlend xmlns="http://www.w3.org/2000/svg" in="SourceGraphic" in2="pf_100_dropShadow" mode="normal"/></filter></defs><g filter="url(#ex3NgJChijj7CMx7zYyM16l5jzrHeFEV)"><path d=" M 494.37 668.089 L 460.945 807.432 L 408.855 920.295 L 346.346 1022.74 L 289.046 920.295 L 257.792 784.859 C 253.95 762.557 258.585 752.143 250.846 687.623 L 257.792 590.387 L 278.628 684.151 L 308.146 802.223 L 368.918 918.559 L 386.282 890.777 L 411.459 848.236 L 447.054 769.232 L 494.37 668.089 Z " fill="rgb(219,12,43)" fill-opacity="0.33" vector-effect="non-scaling-stroke" stroke-width="1" stroke="rgb(219,12,43)" stroke-opacity="0.33" stroke-linejoin="miter" stroke-linecap="square" stroke-miterlimit="3"/></g><defs><filter id="2CHmjesJsz6nDokOdiW540W2ob2nWonZ" x="-200%" y="-200%" width="400%" height="400%" filterUnits="objectBoundingBox" color-interpolation-filters="sRGB"><feGaussianBlur xmlns="http://www.w3.org/2000/svg" in="SourceGraphic" stdDeviation="2.146804531419514"/><feOffset xmlns="http://www.w3.org/2000/svg" dx="0" dy="0" result="pf_100_offsetBlur"/><feFlood xmlns="http://www.w3.org/2000/svg" flood-color="#000000" flood-opacity="0.65"/><feComposite xmlns="http://www.w3.org/2000/svg" in2="pf_100_offsetBlur" operator="in" result="pf_100_dropShadow"/><feBlend xmlns="http://www.w3.org/2000/svg" in="SourceGraphic" in2="pf_100_dropShadow" mode="normal"/></filter></defs><g filter="url(#2CHmjesJsz6nDokOdiW540W2ob2nWonZ)"><path d=" M 714.887 717.513 L 697.979 885.062 L 648.79 1024.943 L 571.932 1131.007 L 518.132 1001.886 L 490.463 857.394 L 490.463 723.662 L 495.075 666.787 L 505.835 742.107 L 542.727 858.931 L 587.304 971.143 L 594.99 994.2 L 642.641 914.268 L 684.144 822.039 L 714.887 717.513 Z " fill="rgb(219,12,43)" fill-opacity="0.33" vector-effect="non-scaling-stroke" stroke-width="1" stroke="rgb(219,12,43)" stroke-opacity="0.33" stroke-linejoin="miter" stroke-linecap="square" stroke-miterlimit="3"/></g><defs><filter id="rEC06qm8IP0xIKlo1flJ3Rmr7vgrECLy" x="-200%" y="-200%" width="400%" height="400%" filterUnits="objectBoundingBox" color-interpolation-filters="sRGB"><feGaussianBlur xmlns="http://www.w3.org/2000/svg" in="SourceGraphic" stdDeviation="2.146804531419514"/><feOffset xmlns="http://www.w3.org/2000/svg" dx="0" dy="0" result="pf_100_offsetBlur"/><feFlood xmlns="http://www.w3.org/2000/svg" flood-color="#000000" flood-opacity="0.65"/><feComposite xmlns="http://www.w3.org/2000/svg" in2="pf_100_offsetBlur" operator="in" result="pf_100_dropShadow"/><feBlend xmlns="http://www.w3.org/2000/svg" in="SourceGraphic" in2="pf_100_dropShadow" mode="normal"/></filter></defs><g filter="url(#rEC06qm8IP0xIKlo1flJ3Rmr7vgrECLy)"><path d=" M 702.229 707.251 L 685.32 874.8 L 636.131 1014.681 L 559.274 1120.745 L 505.473 991.624 L 477.805 847.132 L 477.805 713.399 L 482.416 656.525 L 493.176 731.845 L 530.068 848.669 L 574.645 960.881 L 582.331 983.938 L 629.983 904.006 L 671.486 811.777 L 702.229 707.251 Z " fill="rgb(0,0,0)" vector-effect="non-scaling-stroke" stroke-width="1" stroke="rgb(0,0,0)" stroke-linejoin="miter" stroke-linecap="square" stroke-miterlimit="3"/></g><defs><filter id="UYOKxaEPkSRHrxTPINqaEro6TsCU4TgE" x="-200%" y="-200%" width="400%" height="400%" filterUnits="objectBoundingBox" color-interpolation-filters="sRGB"><feGaussianBlur xmlns="http://www.w3.org/2000/svg" in="SourceGraphic" stdDeviation="2.146804531419514"/><feOffset xmlns="http://www.w3.org/2000/svg" dx="0" dy="0" result="pf_100_offsetBlur"/><feFlood xmlns="http://www.w3.org/2000/svg" flood-color="#000000" flood-opacity="0.65"/><feComposite xmlns="http://www.w3.org/2000/svg" in2="pf_100_offsetBlur" operator="in" result="pf_100_dropShadow"/><feBlend xmlns="http://www.w3.org/2000/svg" in="SourceGraphic" in2="pf_100_dropShadow" mode="normal"/></filter></defs><g filter="url(#UYOKxaEPkSRHrxTPINqaEro6TsCU4TgE)"><path d=" M 481.712 657.827 L 448.287 797.17 L 396.196 910.033 L 333.687 1012.478 L 276.387 910.033 L 245.133 774.597 C 241.292 752.295 245.926 741.881 238.187 677.361 L 245.133 580.125 L 265.969 673.888 L 295.487 791.961 L 356.26 908.296 L 373.623 880.515 L 398.801 837.974 L 434.396 758.97 L 481.712 657.827 Z " fill="rgb(0,0,0)" vector-effect="non-scaling-stroke" stroke-width="1" stroke="rgb(0,0,0)" stroke-linejoin="miter" stroke-linecap="square" stroke-miterlimit="3"/></g><path d=" M 1050.923 1056.277 C 1056.445 1057.661 1061.443 1058.325 1065.959 1058.325 L 1065.959 1058.325 L 1065.959 1058.325 Q 1082.658 1058.325 1091.667 1044.702 L 1091.667 1044.702 L 1091.667 1044.702 Q 1100.675 1031.079 1106.169 1005.811 L 1106.169 1005.811 L 1156.047 768.066 L 1113.639 768.066 L 1116.496 753.345 L 1161.759 738.843 L 1166.813 716.87 L 1166.813 716.87 Q 1176.921 672.925 1194.828 654.797 L 1194.828 654.797 L 1194.828 654.797 Q 1212.736 636.67 1247.892 636.67 L 1247.892 636.67 L 1247.892 636.67 Q 1256.681 636.67 1269.425 639.197 L 1269.425 639.197 L 1269.425 639.197 Q 1282.17 641.724 1289.201 644.8 L 1289.201 644.8 L 1279.753 673.145 L 1279.753 673.145 Q 1263.053 666.772 1249.65 666.772 L 1249.65 666.772 L 1249.65 666.772 Q 1230.534 666.772 1220.317 677.429 L 1220.317 677.429 L 1220.317 677.429 Q 1210.099 688.086 1203.727 716.431 L 1203.727 716.431 L 1198.234 740.161 L 1250.529 740.161 L 1245.036 768.066 L 1192.961 768.066 L 1141.984 1009.326 L 1141.984 1009.326 Q 1133.415 1050.854 1115.617 1069.971 L 1115.617 1069.971 L 1115.617 1069.971 Q 1097.819 1089.087 1068.815 1089.087 L 1068.815 1089.087 L 1068.815 1089.087 Q 1053.749 1089.087 1041.507 1084.527 L 1050.923 1056.277 L 1050.923 1056.277 Z  M 1897.662 685.669 L 1938.312 685.669 L 1938.312 743.237 L 1982.697 743.237 L 1982.697 774.658 L 1938.312 774.658 L 1938.312 922.095 L 1938.312 922.095 Q 1938.312 936.377 1944.244 943.518 L 1944.244 943.518 L 1944.244 943.518 Q 1950.177 950.659 1964.459 950.659 L 1964.459 950.659 L 1964.459 950.659 Q 1971.49 950.659 1983.795 948.022 L 1983.795 948.022 L 1983.795 980.981 L 1983.795 980.981 Q 1967.755 985.376 1952.594 985.376 L 1952.594 985.376 L 1952.594 985.376 Q 1925.348 985.376 1911.505 968.896 L 1911.505 968.896 L 1911.505 968.896 Q 1897.662 952.417 1897.662 922.095 L 1897.662 922.095 L 1897.662 774.658 L 1854.376 774.658 L 1854.376 743.237 L 1897.662 743.237 L 1897.662 685.669 Z  M 2128.815 985.376 L 2128.815 985.376 L 2128.815 985.376 Q 2080.475 985.376 2050.153 953.625 L 2050.153 953.625 L 2050.153 953.625 Q 2019.83 921.875 2019.83 868.701 L 2019.83 868.701 L 2019.83 861.23 L 2019.83 861.23 Q 2019.83 825.854 2033.344 798.059 L 2033.344 798.059 L 2033.344 798.059 Q 2046.857 770.264 2071.136 754.553 L 2071.136 754.553 L 2071.136 754.553 Q 2095.416 738.843 2123.761 738.843 L 2123.761 738.843 L 2123.761 738.843 Q 2170.123 738.843 2195.831 769.385 L 2195.831 769.385 L 2195.831 769.385 Q 2221.539 799.927 2221.539 856.836 L 2221.539 856.836 L 2221.539 873.755 L 2060.48 873.755 L 2060.48 873.755 Q 2061.359 908.911 2081.024 930.554 L 2081.024 930.554 L 2081.024 930.554 Q 2100.69 952.197 2131.012 952.197 L 2131.012 952.197 L 2131.012 952.197 Q 2152.545 952.197 2167.487 943.408 L 2167.487 943.408 L 2167.487 943.408 Q 2182.428 934.619 2193.634 920.117 L 2193.634 920.117 L 2218.463 939.453 L 2218.463 939.453 Q 2188.58 985.376 2128.815 985.376 Z  M 2123.761 772.241 L 2123.761 772.241 L 2123.761 772.241 Q 2099.152 772.241 2082.452 790.149 L 2082.452 790.149 L 2082.452 790.149 Q 2065.753 808.057 2061.798 840.356 L 2061.798 840.356 L 2180.89 840.356 L 2180.89 837.28 L 2180.89 837.28 Q 2179.132 806.299 2164.191 789.27 L 2164.191 789.27 L 2164.191 789.27 Q 2149.249 772.241 2123.761 772.241 Z  M 1806.049 755.981 L 1847.449 755.981 L 1765.999 985.031 L 1765.999 985.031 Q 1734.949 1071.881 1670.149 1071.881 L 1670.149 1071.881 L 1670.149 1071.881 Q 1658.449 1071.881 1644.949 1068.731 L 1644.949 1068.731 L 1644.949 1039.481 L 1644.949 1039.481 Q 1653.049 1042.181 1664.749 1042.181 L 1664.749 1042.181 L 1664.749 1042.181 Q 1687.699 1042.181 1703.899 1025.531 L 1703.899 1025.531 L 1703.899 1025.531 Q 1720.099 1008.881 1734.949 969.281 L 1734.949 969.281 L 1651.249 755.981 L 1692.199 755.981 L 1752.499 928.331 L 1806.049 755.981 Z  M 1475.089 980.981 L 1386.54 980.981 L 1386.54 661.06 L 1476.847 661.06 L 1476.847 661.06 Q 1518.595 661.06 1550.675 679.517 L 1550.675 679.517 L 1550.675 679.517 Q 1582.755 697.974 1600.224 732.031 L 1600.224 732.031 L 1600.224 732.031 Q 1617.692 766.089 1617.912 810.254 L 1617.912 810.254 L 1617.912 830.688 L 1617.912 830.688 Q 1617.912 875.952 1600.443 910.01 L 1600.443 910.01 L 1600.443 910.01 Q 1582.975 944.067 1550.566 962.305 L 1550.566 962.305 L 1550.566 962.305 Q 1518.156 980.542 1475.089 980.981 L 1475.089 980.981 Z  M 1477.946 695.776 L 1428.727 695.776 L 1428.727 946.484 L 1473.112 946.484 L 1473.112 946.484 Q 1521.891 946.484 1549.027 916.162 L 1549.027 916.162 L 1549.027 916.162 Q 1576.164 885.84 1576.164 829.81 L 1576.164 829.81 L 1576.164 811.133 L 1576.164 811.133 Q 1576.164 756.641 1550.566 726.428 L 1550.566 726.428 L 1550.566 726.428 Q 1524.967 696.216 1477.946 695.776 L 1477.946 695.776 Z " fill="rgb(0,0,0)"/><path d=" M 1050.923 1056.277 C 1050.791 1056.247 1050.656 1056.213 1050.52 1056.178 L 1050.52 1056.178 Q 1041.453 1084.511 1041.507 1084.527 L 1050.923 1056.277 L 1050.923 1056.277 Z " fill="rgb(0,0,0)"/><line x1="1049.663" y1="1055.959" x2="1049.663" y2="1055.959"/><path d=" M 1982.89 724.708 L 1978.943 722.736 L 1974.856 724.372 L 1975.443 719.867 L 1972.681 716.338 L 1976.991 715.525 L 1979.372 711.708 L 1981.448 715.712 L 1985.681 716.882 L 1982.654 720.168 L 1982.89 724.708 Z " fill="rgb(255,0,0)"/></g></svg>